<?xml version="1.0" standalone="no"?>
<!DOCTYPE svg PUBLIC "-//W3C//DTD SVG 20010904//EN"
 "http://www.w3.org/TR/2001/REC-SVG-20010904/DTD/svg10.dtd">
<svg version="1.0" xmlns="http://www.w3.org/2000/svg"
 width="260.000000pt" height="260.000000pt" viewBox="0 0 260.000000 260.000000"
 preserveAspectRatio="xMidYMid meet">
<metadata>
Created by potrace 1.11, written by Peter Selinger 2001-2013
</metadata>
<g transform="translate(0.000000,260.000000) scale(0.100000,-0.100000)"
fill="#000000" stroke="none">
<path d="M930 1757 c0 -442 -2 -521 -16 -567 -20 -69 -73 -124 -134 -140 -57
-15 -148 -6 -199 20 -36 18 -111 94 -111 112 0 14 -20 9 -56 -15 l-34 -24 29
-39 c44 -60 91 -101 146 -126 42 -19 67 -23 155 -23 98 0 109 2 159 30 67 37
115 99 141 183 19 61 20 93 20 583 l0 519 -50 0 -50 0 0 -513z"/>
<path d="M1400 1621 l0 -651 50 0 50 0 0 280 0 280 183 0 c206 0 275 12 369
62 72 38 122 97 149 175 18 48 20 76 17 163 -5 125 -29 183 -103 248 -86 76
-131 85 -442 90 l-273 4 0 -651z m545 543 c79 -24 146 -88 163 -156 30 -119 5
-239 -64 -305 -68 -66 -138 -84 -361 -90 l-183 -6 0 293 0 293 193 -6 c144 -4
207 -10 252 -23z"/>
<path d="M483 789 c-42 -12 -83 -62 -83 -102 0 -57 30 -89 123 -134 96 -47
122 -75 112 -123 -15 -68 -119 -87 -195 -36 -30 20 -45 25 -53 17 -15 -15 26
-57 71 -72 19 -6 61 -9 94 -7 76 6 118 42 125 110 7 62 -27 100 -134 149 -89
41 -111 66 -99 114 4 17 18 31 41 41 47 19 65 18 118 -10 40 -22 46 -23 52 -8
7 20 -26 48 -75 62 -41 12 -54 11 -97 -1z"/>
<path d="M1465 716 c-6 -36 -12 -46 -28 -48 -32 -5 -35 -38 -4 -38 l25 0 4
-129 c4 -155 12 -171 90 -171 42 0 48 3 48 20 0 18 -4 20 -34 15 -54 -11 -66
16 -66 152 l0 113 51 0 c43 0 50 3 47 18 -2 13 -15 18 -51 20 l-47 3 0 45 c0
61 -26 61 -35 0z"/>
<path d="M855 673 c-40 -8 -95 -36 -95 -48 0 -22 12 -23 53 -4 23 10 52 19 65
19 28 0 72 -42 72 -70 0 -23 0 -23 -85 -40 -45 -9 -68 -21 -93 -46 -31 -31
-34 -39 -29 -77 4 -26 14 -48 27 -59 30 -24 106 -24 147 1 31 19 31 19 36 0 3
-10 12 -19 21 -19 14 0 16 17 16 125 0 150 -12 188 -64 210 -20 8 -39 14 -43
14 -4 -1 -17 -3 -28 -6z m95 -212 c0 -44 -4 -52 -30 -71 -45 -32 -93 -37 -119
-11 -25 25 -27 48 -6 79 16 21 89 50 133 51 20 1 22 -4 22 -48z"/>
<path d="M1206 670 c-16 -5 -39 -19 -52 -31 l-24 -22 0 26 c0 17 -5 27 -15 27
-13 0 -15 -26 -15 -171 0 -157 1 -170 18 -167 15 3 18 20 22 133 l5 129 34 23
c61 41 106 25 121 -42 5 -22 10 -86 10 -142 0 -85 3 -103 15 -103 13 0 15 22
15 141 0 81 -5 149 -11 161 -6 11 -26 26 -44 34 -38 16 -39 16 -79 4z"/>
<path d="M1737 665 c-50 -17 -67 -32 -88 -80 -24 -52 -24 -119 1 -172 49 -110
207 -112 263 -3 25 48 20 158 -9 197 -45 60 -103 80 -167 58z m88 -37 c35 -16
65 -77 65 -131 0 -79 -66 -146 -130 -132 -93 20 -118 183 -39 249 33 28 64 32
104 14z"/>
<path d="M2064 669 c-43 -12 -68 -44 -68 -86 0 -43 29 -70 105 -97 59 -22 86
-54 69 -85 -23 -45 -74 -52 -133 -21 -60 32 -82 5 -24 -30 35 -22 125 -27 158
-10 29 16 51 67 44 101 -8 36 -42 63 -106 84 -52 18 -81 47 -72 74 14 41 65
53 117 26 35 -18 33 -18 40 0 12 32 -74 61 -130 44z"/>
</g>
</svg>
